<mxfile host="app.diagrams.net" modified="2023-05-10T02:29:56.527Z" agent="Mozilla/5.0 (Windows NT 10.0; Win64; x64) AppleWebKit/537.36 (KHTML, like Gecko) Chrome/112.0.0.0 Safari/537.36" etag="FR2bi6MItY2fDCZmHRAZ" version="21.2.9" type="github">
  <diagram name="Page-1" id="xJqE-Z3jlllKSSy0UL5U">
    <mxGraphModel dx="1430" dy="784" grid="0" gridSize="10" guides="1" tooltips="1" connect="1" arrows="1" fold="1" page="1" pageScale="1" pageWidth="2336" pageHeight="1654" background="#F5F2F2" math="0" shadow="0">
      <root>
        <mxCell id="0" />
        <mxCell id="1" parent="0" />
        <mxCell id="kdMP9LqTFJ9MGKXx3PHf-86" value="" style="group" vertex="1" connectable="0" parent="1">
          <mxGeometry x="462" y="273" width="266" height="780" as="geometry" />
        </mxCell>
        <mxCell id="kdMP9LqTFJ9MGKXx3PHf-27" value="FACT_Bookings" style="shape=table;startSize=30;container=1;collapsible=1;childLayout=tableLayout;fixedRows=1;rowLines=0;fontStyle=1;align=center;resizeLast=1;html=1;fillColor=#d5e8d4;strokeColor=#82b366;" vertex="1" parent="kdMP9LqTFJ9MGKXx3PHf-86">
          <mxGeometry width="266" height="780" as="geometry">
            <mxRectangle width="65" height="30" as="alternateBounds" />
          </mxGeometry>
        </mxCell>
        <mxCell id="kdMP9LqTFJ9MGKXx3PHf-28" value="" style="shape=tableRow;horizontal=0;startSize=0;swimlaneHead=0;swimlaneBody=0;fillColor=none;collapsible=0;dropTarget=0;points=[[0,0.5],[1,0.5]];portConstraint=eastwest;top=0;left=0;right=0;bottom=1;" vertex="1" parent="kdMP9LqTFJ9MGKXx3PHf-27">
          <mxGeometry y="30" width="266" height="30" as="geometry" />
        </mxCell>
        <mxCell id="kdMP9LqTFJ9MGKXx3PHf-29" value="SK" style="shape=partialRectangle;connectable=0;fillColor=none;top=0;left=0;bottom=0;right=0;fontStyle=1;overflow=hidden;whiteSpace=wrap;html=1;" vertex="1" parent="kdMP9LqTFJ9MGKXx3PHf-28">
          <mxGeometry width="64" height="30" as="geometry">
            <mxRectangle width="64" height="30" as="alternateBounds" />
          </mxGeometry>
        </mxCell>
        <mxCell id="kdMP9LqTFJ9MGKXx3PHf-30" value="Booking_KEY" style="shape=partialRectangle;connectable=0;fillColor=none;top=0;left=0;bottom=0;right=0;align=left;spacingLeft=6;fontStyle=1;overflow=hidden;whiteSpace=wrap;html=1;" vertex="1" parent="kdMP9LqTFJ9MGKXx3PHf-28">
          <mxGeometry x="64" width="202" height="30" as="geometry">
            <mxRectangle width="202" height="30" as="alternateBounds" />
          </mxGeometry>
        </mxCell>
        <mxCell id="kdMP9LqTFJ9MGKXx3PHf-31" value="" style="shape=tableRow;horizontal=0;startSize=0;swimlaneHead=0;swimlaneBody=0;fillColor=none;collapsible=0;dropTarget=0;points=[[0,0.5],[1,0.5]];portConstraint=eastwest;top=0;left=0;right=0;bottom=0;" vertex="1" parent="kdMP9LqTFJ9MGKXx3PHf-27">
          <mxGeometry y="60" width="266" height="30" as="geometry" />
        </mxCell>
        <mxCell id="kdMP9LqTFJ9MGKXx3PHf-32" value="" style="shape=partialRectangle;connectable=0;fillColor=none;top=0;left=0;bottom=0;right=0;editable=1;overflow=hidden;whiteSpace=wrap;html=1;" vertex="1" parent="kdMP9LqTFJ9MGKXx3PHf-31">
          <mxGeometry width="64" height="30" as="geometry">
            <mxRectangle width="64" height="30" as="alternateBounds" />
          </mxGeometry>
        </mxCell>
        <mxCell id="kdMP9LqTFJ9MGKXx3PHf-33" value="BookingId" style="shape=partialRectangle;connectable=0;fillColor=none;top=0;left=0;bottom=0;right=0;align=left;spacingLeft=6;overflow=hidden;whiteSpace=wrap;html=1;" vertex="1" parent="kdMP9LqTFJ9MGKXx3PHf-31">
          <mxGeometry x="64" width="202" height="30" as="geometry">
            <mxRectangle width="202" height="30" as="alternateBounds" />
          </mxGeometry>
        </mxCell>
        <mxCell id="kdMP9LqTFJ9MGKXx3PHf-34" value="" style="shape=tableRow;horizontal=0;startSize=0;swimlaneHead=0;swimlaneBody=0;fillColor=none;collapsible=0;dropTarget=0;points=[[0,0.5],[1,0.5]];portConstraint=eastwest;top=0;left=0;right=0;bottom=0;" vertex="1" parent="kdMP9LqTFJ9MGKXx3PHf-27">
          <mxGeometry y="90" width="266" height="30" as="geometry" />
        </mxCell>
        <mxCell id="kdMP9LqTFJ9MGKXx3PHf-35" value="" style="shape=partialRectangle;connectable=0;fillColor=none;top=0;left=0;bottom=0;right=0;editable=1;overflow=hidden;whiteSpace=wrap;html=1;" vertex="1" parent="kdMP9LqTFJ9MGKXx3PHf-34">
          <mxGeometry width="64" height="30" as="geometry">
            <mxRectangle width="64" height="30" as="alternateBounds" />
          </mxGeometry>
        </mxCell>
        <mxCell id="kdMP9LqTFJ9MGKXx3PHf-36" value="CreatedBy" style="shape=partialRectangle;connectable=0;fillColor=none;top=0;left=0;bottom=0;right=0;align=left;spacingLeft=6;overflow=hidden;whiteSpace=wrap;html=1;" vertex="1" parent="kdMP9LqTFJ9MGKXx3PHf-34">
          <mxGeometry x="64" width="202" height="30" as="geometry">
            <mxRectangle width="202" height="30" as="alternateBounds" />
          </mxGeometry>
        </mxCell>
        <mxCell id="kdMP9LqTFJ9MGKXx3PHf-37" value="" style="shape=tableRow;horizontal=0;startSize=0;swimlaneHead=0;swimlaneBody=0;fillColor=none;collapsible=0;dropTarget=0;points=[[0,0.5],[1,0.5]];portConstraint=eastwest;top=0;left=0;right=0;bottom=0;" vertex="1" parent="kdMP9LqTFJ9MGKXx3PHf-27">
          <mxGeometry y="120" width="266" height="30" as="geometry" />
        </mxCell>
        <mxCell id="kdMP9LqTFJ9MGKXx3PHf-38" value="" style="shape=partialRectangle;connectable=0;fillColor=none;top=0;left=0;bottom=0;right=0;editable=1;overflow=hidden;whiteSpace=wrap;html=1;" vertex="1" parent="kdMP9LqTFJ9MGKXx3PHf-37">
          <mxGeometry width="64" height="30" as="geometry">
            <mxRectangle width="64" height="30" as="alternateBounds" />
          </mxGeometry>
        </mxCell>
        <mxCell id="kdMP9LqTFJ9MGKXx3PHf-39" value="CreatedDate" style="shape=partialRectangle;connectable=0;fillColor=none;top=0;left=0;bottom=0;right=0;align=left;spacingLeft=6;overflow=hidden;whiteSpace=wrap;html=1;" vertex="1" parent="kdMP9LqTFJ9MGKXx3PHf-37">
          <mxGeometry x="64" width="202" height="30" as="geometry">
            <mxRectangle width="202" height="30" as="alternateBounds" />
          </mxGeometry>
        </mxCell>
        <mxCell id="kdMP9LqTFJ9MGKXx3PHf-40" value="" style="shape=tableRow;horizontal=0;startSize=0;swimlaneHead=0;swimlaneBody=0;fillColor=none;collapsible=0;dropTarget=0;points=[[0,0.5],[1,0.5]];portConstraint=eastwest;top=0;left=0;right=0;bottom=0;" vertex="1" parent="kdMP9LqTFJ9MGKXx3PHf-27">
          <mxGeometry y="150" width="266" height="30" as="geometry" />
        </mxCell>
        <mxCell id="kdMP9LqTFJ9MGKXx3PHf-41" value="" style="shape=partialRectangle;connectable=0;fillColor=none;top=0;left=0;bottom=0;right=0;editable=1;overflow=hidden;whiteSpace=wrap;html=1;" vertex="1" parent="kdMP9LqTFJ9MGKXx3PHf-40">
          <mxGeometry width="64" height="30" as="geometry">
            <mxRectangle width="64" height="30" as="alternateBounds" />
          </mxGeometry>
        </mxCell>
        <mxCell id="kdMP9LqTFJ9MGKXx3PHf-42" value="UpdatedBy" style="shape=partialRectangle;connectable=0;fillColor=none;top=0;left=0;bottom=0;right=0;align=left;spacingLeft=6;overflow=hidden;whiteSpace=wrap;html=1;" vertex="1" parent="kdMP9LqTFJ9MGKXx3PHf-40">
          <mxGeometry x="64" width="202" height="30" as="geometry">
            <mxRectangle width="202" height="30" as="alternateBounds" />
          </mxGeometry>
        </mxCell>
        <mxCell id="kdMP9LqTFJ9MGKXx3PHf-43" value="" style="shape=tableRow;horizontal=0;startSize=0;swimlaneHead=0;swimlaneBody=0;fillColor=none;collapsible=0;dropTarget=0;points=[[0,0.5],[1,0.5]];portConstraint=eastwest;top=0;left=0;right=0;bottom=0;" vertex="1" parent="kdMP9LqTFJ9MGKXx3PHf-27">
          <mxGeometry y="180" width="266" height="30" as="geometry" />
        </mxCell>
        <mxCell id="kdMP9LqTFJ9MGKXx3PHf-44" value="" style="shape=partialRectangle;connectable=0;fillColor=none;top=0;left=0;bottom=0;right=0;editable=1;overflow=hidden;whiteSpace=wrap;html=1;" vertex="1" parent="kdMP9LqTFJ9MGKXx3PHf-43">
          <mxGeometry width="64" height="30" as="geometry">
            <mxRectangle width="64" height="30" as="alternateBounds" />
          </mxGeometry>
        </mxCell>
        <mxCell id="kdMP9LqTFJ9MGKXx3PHf-45" value="UpdatedDate" style="shape=partialRectangle;connectable=0;fillColor=none;top=0;left=0;bottom=0;right=0;align=left;spacingLeft=6;overflow=hidden;whiteSpace=wrap;html=1;" vertex="1" parent="kdMP9LqTFJ9MGKXx3PHf-43">
          <mxGeometry x="64" width="202" height="30" as="geometry">
            <mxRectangle width="202" height="30" as="alternateBounds" />
          </mxGeometry>
        </mxCell>
        <mxCell id="kdMP9LqTFJ9MGKXx3PHf-46" value="" style="shape=tableRow;horizontal=0;startSize=0;swimlaneHead=0;swimlaneBody=0;fillColor=none;collapsible=0;dropTarget=0;points=[[0,0.5],[1,0.5]];portConstraint=eastwest;top=0;left=0;right=0;bottom=0;" vertex="1" parent="kdMP9LqTFJ9MGKXx3PHf-27">
          <mxGeometry y="210" width="266" height="30" as="geometry" />
        </mxCell>
        <mxCell id="kdMP9LqTFJ9MGKXx3PHf-47" value="" style="shape=partialRectangle;connectable=0;fillColor=none;top=0;left=0;bottom=0;right=0;editable=1;overflow=hidden;whiteSpace=wrap;html=1;" vertex="1" parent="kdMP9LqTFJ9MGKXx3PHf-46">
          <mxGeometry width="64" height="30" as="geometry">
            <mxRectangle width="64" height="30" as="alternateBounds" />
          </mxGeometry>
        </mxCell>
        <mxCell id="kdMP9LqTFJ9MGKXx3PHf-48" value="PreviousBookingId" style="shape=partialRectangle;connectable=0;fillColor=none;top=0;left=0;bottom=0;right=0;align=left;spacingLeft=6;overflow=hidden;whiteSpace=wrap;html=1;" vertex="1" parent="kdMP9LqTFJ9MGKXx3PHf-46">
          <mxGeometry x="64" width="202" height="30" as="geometry">
            <mxRectangle width="202" height="30" as="alternateBounds" />
          </mxGeometry>
        </mxCell>
        <mxCell id="kdMP9LqTFJ9MGKXx3PHf-49" value="" style="shape=tableRow;horizontal=0;startSize=0;swimlaneHead=0;swimlaneBody=0;fillColor=none;collapsible=0;dropTarget=0;points=[[0,0.5],[1,0.5]];portConstraint=eastwest;top=0;left=0;right=0;bottom=0;" vertex="1" parent="kdMP9LqTFJ9MGKXx3PHf-27">
          <mxGeometry y="240" width="266" height="30" as="geometry" />
        </mxCell>
        <mxCell id="kdMP9LqTFJ9MGKXx3PHf-50" value="" style="shape=partialRectangle;connectable=0;fillColor=none;top=0;left=0;bottom=0;right=0;editable=1;overflow=hidden;whiteSpace=wrap;html=1;" vertex="1" parent="kdMP9LqTFJ9MGKXx3PHf-49">
          <mxGeometry width="64" height="30" as="geometry">
            <mxRectangle width="64" height="30" as="alternateBounds" />
          </mxGeometry>
        </mxCell>
        <mxCell id="kdMP9LqTFJ9MGKXx3PHf-51" value="NextBookingId" style="shape=partialRectangle;connectable=0;fillColor=none;top=0;left=0;bottom=0;right=0;align=left;spacingLeft=6;overflow=hidden;whiteSpace=wrap;html=1;" vertex="1" parent="kdMP9LqTFJ9MGKXx3PHf-49">
          <mxGeometry x="64" width="202" height="30" as="geometry">
            <mxRectangle width="202" height="30" as="alternateBounds" />
          </mxGeometry>
        </mxCell>
        <mxCell id="kdMP9LqTFJ9MGKXx3PHf-52" value="" style="shape=tableRow;horizontal=0;startSize=0;swimlaneHead=0;swimlaneBody=0;fillColor=none;collapsible=0;dropTarget=0;points=[[0,0.5],[1,0.5]];portConstraint=eastwest;top=0;left=0;right=0;bottom=0;" vertex="1" parent="kdMP9LqTFJ9MGKXx3PHf-27">
          <mxGeometry y="270" width="266" height="30" as="geometry" />
        </mxCell>
        <mxCell id="kdMP9LqTFJ9MGKXx3PHf-53" value="" style="shape=partialRectangle;connectable=0;fillColor=none;top=0;left=0;bottom=0;right=0;editable=1;overflow=hidden;whiteSpace=wrap;html=1;" vertex="1" parent="kdMP9LqTFJ9MGKXx3PHf-52">
          <mxGeometry width="64" height="30" as="geometry">
            <mxRectangle width="64" height="30" as="alternateBounds" />
          </mxGeometry>
        </mxCell>
        <mxCell id="kdMP9LqTFJ9MGKXx3PHf-54" value="&lt;b&gt;BookingState_KEY&lt;/b&gt;" style="shape=partialRectangle;connectable=0;fillColor=none;top=0;left=0;bottom=0;right=0;align=left;spacingLeft=6;overflow=hidden;whiteSpace=wrap;html=1;" vertex="1" parent="kdMP9LqTFJ9MGKXx3PHf-52">
          <mxGeometry x="64" width="202" height="30" as="geometry">
            <mxRectangle width="202" height="30" as="alternateBounds" />
          </mxGeometry>
        </mxCell>
        <mxCell id="kdMP9LqTFJ9MGKXx3PHf-55" value="" style="shape=tableRow;horizontal=0;startSize=0;swimlaneHead=0;swimlaneBody=0;fillColor=none;collapsible=0;dropTarget=0;points=[[0,0.5],[1,0.5]];portConstraint=eastwest;top=0;left=0;right=0;bottom=0;" vertex="1" parent="kdMP9LqTFJ9MGKXx3PHf-27">
          <mxGeometry y="300" width="266" height="30" as="geometry" />
        </mxCell>
        <mxCell id="kdMP9LqTFJ9MGKXx3PHf-56" value="" style="shape=partialRectangle;connectable=0;fillColor=none;top=0;left=0;bottom=0;right=0;editable=1;overflow=hidden;whiteSpace=wrap;html=1;" vertex="1" parent="kdMP9LqTFJ9MGKXx3PHf-55">
          <mxGeometry width="64" height="30" as="geometry">
            <mxRectangle width="64" height="30" as="alternateBounds" />
          </mxGeometry>
        </mxCell>
        <mxCell id="kdMP9LqTFJ9MGKXx3PHf-57" value="&lt;b&gt;InspectionState_KEY&lt;/b&gt;" style="shape=partialRectangle;connectable=0;fillColor=none;top=0;left=0;bottom=0;right=0;align=left;spacingLeft=6;overflow=hidden;whiteSpace=wrap;html=1;" vertex="1" parent="kdMP9LqTFJ9MGKXx3PHf-55">
          <mxGeometry x="64" width="202" height="30" as="geometry">
            <mxRectangle width="202" height="30" as="alternateBounds" />
          </mxGeometry>
        </mxCell>
        <mxCell id="kdMP9LqTFJ9MGKXx3PHf-58" value="" style="shape=tableRow;horizontal=0;startSize=0;swimlaneHead=0;swimlaneBody=0;fillColor=none;collapsible=0;dropTarget=0;points=[[0,0.5],[1,0.5]];portConstraint=eastwest;top=0;left=0;right=0;bottom=0;" vertex="1" parent="kdMP9LqTFJ9MGKXx3PHf-27">
          <mxGeometry y="330" width="266" height="30" as="geometry" />
        </mxCell>
        <mxCell id="kdMP9LqTFJ9MGKXx3PHf-59" value="" style="shape=partialRectangle;connectable=0;fillColor=none;top=0;left=0;bottom=0;right=0;editable=1;overflow=hidden;whiteSpace=wrap;html=1;" vertex="1" parent="kdMP9LqTFJ9MGKXx3PHf-58">
          <mxGeometry width="64" height="30" as="geometry">
            <mxRectangle width="64" height="30" as="alternateBounds" />
          </mxGeometry>
        </mxCell>
        <mxCell id="kdMP9LqTFJ9MGKXx3PHf-60" value="&lt;b&gt;Product_KEY&lt;/b&gt;" style="shape=partialRectangle;connectable=0;fillColor=none;top=0;left=0;bottom=0;right=0;align=left;spacingLeft=6;overflow=hidden;whiteSpace=wrap;html=1;" vertex="1" parent="kdMP9LqTFJ9MGKXx3PHf-58">
          <mxGeometry x="64" width="202" height="30" as="geometry">
            <mxRectangle width="202" height="30" as="alternateBounds" />
          </mxGeometry>
        </mxCell>
        <mxCell id="kdMP9LqTFJ9MGKXx3PHf-61" value="" style="shape=tableRow;horizontal=0;startSize=0;swimlaneHead=0;swimlaneBody=0;fillColor=none;collapsible=0;dropTarget=0;points=[[0,0.5],[1,0.5]];portConstraint=eastwest;top=0;left=0;right=0;bottom=0;" vertex="1" parent="kdMP9LqTFJ9MGKXx3PHf-27">
          <mxGeometry y="360" width="266" height="30" as="geometry" />
        </mxCell>
        <mxCell id="kdMP9LqTFJ9MGKXx3PHf-62" value="" style="shape=partialRectangle;connectable=0;fillColor=none;top=0;left=0;bottom=0;right=0;editable=1;overflow=hidden;whiteSpace=wrap;html=1;" vertex="1" parent="kdMP9LqTFJ9MGKXx3PHf-61">
          <mxGeometry width="64" height="30" as="geometry">
            <mxRectangle width="64" height="30" as="alternateBounds" />
          </mxGeometry>
        </mxCell>
        <mxCell id="kdMP9LqTFJ9MGKXx3PHf-63" value="&lt;span style=&quot;font-weight: normal;&quot;&gt;&lt;font color=&quot;#ff0a0a&quot;&gt;OrganizationId&lt;/font&gt;&lt;/span&gt;" style="shape=partialRectangle;connectable=0;fillColor=none;top=0;left=0;bottom=0;right=0;align=left;spacingLeft=6;overflow=hidden;whiteSpace=wrap;html=1;fontStyle=1" vertex="1" parent="kdMP9LqTFJ9MGKXx3PHf-61">
          <mxGeometry x="64" width="202" height="30" as="geometry">
            <mxRectangle width="202" height="30" as="alternateBounds" />
          </mxGeometry>
        </mxCell>
        <mxCell id="kdMP9LqTFJ9MGKXx3PHf-64" value="" style="shape=tableRow;horizontal=0;startSize=0;swimlaneHead=0;swimlaneBody=0;fillColor=none;collapsible=0;dropTarget=0;points=[[0,0.5],[1,0.5]];portConstraint=eastwest;top=0;left=0;right=0;bottom=0;" vertex="1" parent="kdMP9LqTFJ9MGKXx3PHf-27">
          <mxGeometry y="390" width="266" height="30" as="geometry" />
        </mxCell>
        <mxCell id="kdMP9LqTFJ9MGKXx3PHf-65" value="" style="shape=partialRectangle;connectable=0;fillColor=none;top=0;left=0;bottom=0;right=0;editable=1;overflow=hidden;whiteSpace=wrap;html=1;" vertex="1" parent="kdMP9LqTFJ9MGKXx3PHf-64">
          <mxGeometry width="64" height="30" as="geometry">
            <mxRectangle width="64" height="30" as="alternateBounds" />
          </mxGeometry>
        </mxCell>
        <mxCell id="kdMP9LqTFJ9MGKXx3PHf-66" value="VehicleRego&lt;span style=&quot;white-space: pre;&quot;&gt;	&lt;/span&gt;&lt;span style=&quot;white-space: pre;&quot;&gt;	&lt;/span&gt;" style="shape=partialRectangle;connectable=0;fillColor=none;top=0;left=0;bottom=0;right=0;align=left;spacingLeft=6;overflow=hidden;whiteSpace=wrap;html=1;fontColor=#FF0000;" vertex="1" parent="kdMP9LqTFJ9MGKXx3PHf-64">
          <mxGeometry x="64" width="202" height="30" as="geometry">
            <mxRectangle width="202" height="30" as="alternateBounds" />
          </mxGeometry>
        </mxCell>
        <mxCell id="kdMP9LqTFJ9MGKXx3PHf-67" value="" style="shape=tableRow;horizontal=0;startSize=0;swimlaneHead=0;swimlaneBody=0;fillColor=none;collapsible=0;dropTarget=0;points=[[0,0.5],[1,0.5]];portConstraint=eastwest;top=0;left=0;right=0;bottom=0;" vertex="1" parent="kdMP9LqTFJ9MGKXx3PHf-27">
          <mxGeometry y="420" width="266" height="30" as="geometry" />
        </mxCell>
        <mxCell id="kdMP9LqTFJ9MGKXx3PHf-68" value="" style="shape=partialRectangle;connectable=0;fillColor=none;top=0;left=0;bottom=0;right=0;editable=1;overflow=hidden;whiteSpace=wrap;html=1;" vertex="1" parent="kdMP9LqTFJ9MGKXx3PHf-67">
          <mxGeometry width="64" height="30" as="geometry">
            <mxRectangle width="64" height="30" as="alternateBounds" />
          </mxGeometry>
        </mxCell>
        <mxCell id="kdMP9LqTFJ9MGKXx3PHf-69" value="OtherVehicleId" style="shape=partialRectangle;connectable=0;fillColor=none;top=0;left=0;bottom=0;right=0;align=left;spacingLeft=6;overflow=hidden;whiteSpace=wrap;html=1;fontColor=#FF0000;" vertex="1" parent="kdMP9LqTFJ9MGKXx3PHf-67">
          <mxGeometry x="64" width="202" height="30" as="geometry">
            <mxRectangle width="202" height="30" as="alternateBounds" />
          </mxGeometry>
        </mxCell>
        <mxCell id="kdMP9LqTFJ9MGKXx3PHf-70" value="" style="shape=tableRow;horizontal=0;startSize=0;swimlaneHead=0;swimlaneBody=0;fillColor=none;collapsible=0;dropTarget=0;points=[[0,0.5],[1,0.5]];portConstraint=eastwest;top=0;left=0;right=0;bottom=0;" vertex="1" parent="kdMP9LqTFJ9MGKXx3PHf-27">
          <mxGeometry y="450" width="266" height="30" as="geometry" />
        </mxCell>
        <mxCell id="kdMP9LqTFJ9MGKXx3PHf-71" value="" style="shape=partialRectangle;connectable=0;fillColor=none;top=0;left=0;bottom=0;right=0;editable=1;overflow=hidden;whiteSpace=wrap;html=1;" vertex="1" parent="kdMP9LqTFJ9MGKXx3PHf-70">
          <mxGeometry width="64" height="30" as="geometry">
            <mxRectangle width="64" height="30" as="alternateBounds" />
          </mxGeometry>
        </mxCell>
        <mxCell id="kdMP9LqTFJ9MGKXx3PHf-72" value="StartDateTime" style="shape=partialRectangle;connectable=0;fillColor=none;top=0;left=0;bottom=0;right=0;align=left;spacingLeft=6;overflow=hidden;whiteSpace=wrap;html=1;" vertex="1" parent="kdMP9LqTFJ9MGKXx3PHf-70">
          <mxGeometry x="64" width="202" height="30" as="geometry">
            <mxRectangle width="202" height="30" as="alternateBounds" />
          </mxGeometry>
        </mxCell>
        <mxCell id="kdMP9LqTFJ9MGKXx3PHf-73" value="" style="shape=tableRow;horizontal=0;startSize=0;swimlaneHead=0;swimlaneBody=0;fillColor=none;collapsible=0;dropTarget=0;points=[[0,0.5],[1,0.5]];portConstraint=eastwest;top=0;left=0;right=0;bottom=0;" vertex="1" parent="kdMP9LqTFJ9MGKXx3PHf-27">
          <mxGeometry y="480" width="266" height="30" as="geometry" />
        </mxCell>
        <mxCell id="kdMP9LqTFJ9MGKXx3PHf-74" value="" style="shape=partialRectangle;connectable=0;fillColor=none;top=0;left=0;bottom=0;right=0;editable=1;overflow=hidden;whiteSpace=wrap;html=1;" vertex="1" parent="kdMP9LqTFJ9MGKXx3PHf-73">
          <mxGeometry width="64" height="30" as="geometry">
            <mxRectangle width="64" height="30" as="alternateBounds" />
          </mxGeometry>
        </mxCell>
        <mxCell id="kdMP9LqTFJ9MGKXx3PHf-75" value="EndDateTime" style="shape=partialRectangle;connectable=0;fillColor=none;top=0;left=0;bottom=0;right=0;align=left;spacingLeft=6;overflow=hidden;whiteSpace=wrap;html=1;" vertex="1" parent="kdMP9LqTFJ9MGKXx3PHf-73">
          <mxGeometry x="64" width="202" height="30" as="geometry">
            <mxRectangle width="202" height="30" as="alternateBounds" />
          </mxGeometry>
        </mxCell>
        <mxCell id="kdMP9LqTFJ9MGKXx3PHf-76" value="" style="shape=tableRow;horizontal=0;startSize=0;swimlaneHead=0;swimlaneBody=0;fillColor=none;collapsible=0;dropTarget=0;points=[[0,0.5],[1,0.5]];portConstraint=eastwest;top=0;left=0;right=0;bottom=0;" vertex="1" parent="kdMP9LqTFJ9MGKXx3PHf-27">
          <mxGeometry y="510" width="266" height="30" as="geometry" />
        </mxCell>
        <mxCell id="kdMP9LqTFJ9MGKXx3PHf-77" value="" style="shape=partialRectangle;connectable=0;fillColor=none;top=0;left=0;bottom=0;right=0;editable=1;overflow=hidden;whiteSpace=wrap;html=1;" vertex="1" parent="kdMP9LqTFJ9MGKXx3PHf-76">
          <mxGeometry width="64" height="30" as="geometry">
            <mxRectangle width="64" height="30" as="alternateBounds" />
          </mxGeometry>
        </mxCell>
        <mxCell id="kdMP9LqTFJ9MGKXx3PHf-78" value="&lt;font color=&quot;#ff0000&quot;&gt;Deleted&lt;/font&gt;" style="shape=partialRectangle;connectable=0;fillColor=none;top=0;left=0;bottom=0;right=0;align=left;spacingLeft=6;overflow=hidden;whiteSpace=wrap;html=1;" vertex="1" parent="kdMP9LqTFJ9MGKXx3PHf-76">
          <mxGeometry x="64" width="202" height="30" as="geometry">
            <mxRectangle width="202" height="30" as="alternateBounds" />
          </mxGeometry>
        </mxCell>
        <mxCell id="kdMP9LqTFJ9MGKXx3PHf-79" value="" style="shape=tableRow;horizontal=0;startSize=0;swimlaneHead=0;swimlaneBody=0;fillColor=none;collapsible=0;dropTarget=0;points=[[0,0.5],[1,0.5]];portConstraint=eastwest;top=0;left=0;right=0;bottom=0;" vertex="1" parent="kdMP9LqTFJ9MGKXx3PHf-27">
          <mxGeometry y="540" width="266" height="30" as="geometry" />
        </mxCell>
        <mxCell id="kdMP9LqTFJ9MGKXx3PHf-80" value="" style="shape=partialRectangle;connectable=0;fillColor=none;top=0;left=0;bottom=0;right=0;editable=1;overflow=hidden;whiteSpace=wrap;html=1;" vertex="1" parent="kdMP9LqTFJ9MGKXx3PHf-79">
          <mxGeometry width="64" height="30" as="geometry">
            <mxRectangle width="64" height="30" as="alternateBounds" />
          </mxGeometry>
        </mxCell>
        <mxCell id="kdMP9LqTFJ9MGKXx3PHf-81" value="&lt;b&gt;Tenant_KEY&lt;/b&gt;" style="shape=partialRectangle;connectable=0;fillColor=none;top=0;left=0;bottom=0;right=0;align=left;spacingLeft=6;overflow=hidden;whiteSpace=wrap;html=1;" vertex="1" parent="kdMP9LqTFJ9MGKXx3PHf-79">
          <mxGeometry x="64" width="202" height="30" as="geometry">
            <mxRectangle width="202" height="30" as="alternateBounds" />
          </mxGeometry>
        </mxCell>
        <mxCell id="kdMP9LqTFJ9MGKXx3PHf-82" value="" style="shape=tableRow;horizontal=0;startSize=0;swimlaneHead=0;swimlaneBody=0;fillColor=none;collapsible=0;dropTarget=0;points=[[0,0.5],[1,0.5]];portConstraint=eastwest;top=0;left=0;right=0;bottom=0;" vertex="1" parent="kdMP9LqTFJ9MGKXx3PHf-27">
          <mxGeometry y="570" width="266" height="30" as="geometry" />
        </mxCell>
        <mxCell id="kdMP9LqTFJ9MGKXx3PHf-83" value="" style="shape=partialRectangle;connectable=0;fillColor=none;top=0;left=0;bottom=0;right=0;editable=1;overflow=hidden;whiteSpace=wrap;html=1;" vertex="1" parent="kdMP9LqTFJ9MGKXx3PHf-82">
          <mxGeometry width="64" height="30" as="geometry">
            <mxRectangle width="64" height="30" as="alternateBounds" />
          </mxGeometry>
        </mxCell>
        <mxCell id="kdMP9LqTFJ9MGKXx3PHf-84" value="&lt;font color=&quot;#ff0000&quot;&gt;Note&lt;/font&gt;" style="shape=partialRectangle;connectable=0;fillColor=none;top=0;left=0;bottom=0;right=0;align=left;spacingLeft=6;overflow=hidden;whiteSpace=wrap;html=1;" vertex="1" parent="kdMP9LqTFJ9MGKXx3PHf-82">
          <mxGeometry x="64" width="202" height="30" as="geometry">
            <mxRectangle width="202" height="30" as="alternateBounds" />
          </mxGeometry>
        </mxCell>
        <mxCell id="kdMP9LqTFJ9MGKXx3PHf-148" value="" style="shape=tableRow;horizontal=0;startSize=0;swimlaneHead=0;swimlaneBody=0;fillColor=none;collapsible=0;dropTarget=0;points=[[0,0.5],[1,0.5]];portConstraint=eastwest;top=0;left=0;right=0;bottom=0;" vertex="1" parent="kdMP9LqTFJ9MGKXx3PHf-27">
          <mxGeometry y="600" width="266" height="30" as="geometry" />
        </mxCell>
        <mxCell id="kdMP9LqTFJ9MGKXx3PHf-149" value="" style="shape=partialRectangle;connectable=0;fillColor=none;top=0;left=0;bottom=0;right=0;editable=1;overflow=hidden;whiteSpace=wrap;html=1;" vertex="1" parent="kdMP9LqTFJ9MGKXx3PHf-148">
          <mxGeometry width="64" height="30" as="geometry">
            <mxRectangle width="64" height="30" as="alternateBounds" />
          </mxGeometry>
        </mxCell>
        <mxCell id="kdMP9LqTFJ9MGKXx3PHf-150" value="&lt;b&gt;Location_KEY&lt;/b&gt;" style="shape=partialRectangle;connectable=0;fillColor=none;top=0;left=0;bottom=0;right=0;align=left;spacingLeft=6;overflow=hidden;whiteSpace=wrap;html=1;" vertex="1" parent="kdMP9LqTFJ9MGKXx3PHf-148">
          <mxGeometry x="64" width="202" height="30" as="geometry">
            <mxRectangle width="202" height="30" as="alternateBounds" />
          </mxGeometry>
        </mxCell>
        <mxCell id="kdMP9LqTFJ9MGKXx3PHf-151" value="" style="shape=tableRow;horizontal=0;startSize=0;swimlaneHead=0;swimlaneBody=0;fillColor=none;collapsible=0;dropTarget=0;points=[[0,0.5],[1,0.5]];portConstraint=eastwest;top=0;left=0;right=0;bottom=0;" vertex="1" parent="kdMP9LqTFJ9MGKXx3PHf-27">
          <mxGeometry y="630" width="266" height="30" as="geometry" />
        </mxCell>
        <mxCell id="kdMP9LqTFJ9MGKXx3PHf-152" value="" style="shape=partialRectangle;connectable=0;fillColor=none;top=0;left=0;bottom=0;right=0;editable=1;overflow=hidden;whiteSpace=wrap;html=1;" vertex="1" parent="kdMP9LqTFJ9MGKXx3PHf-151">
          <mxGeometry width="64" height="30" as="geometry">
            <mxRectangle width="64" height="30" as="alternateBounds" />
          </mxGeometry>
        </mxCell>
        <mxCell id="kdMP9LqTFJ9MGKXx3PHf-153" value="&lt;font color=&quot;#ff0000&quot;&gt;LocationName&lt;/font&gt;" style="shape=partialRectangle;connectable=0;fillColor=none;top=0;left=0;bottom=0;right=0;align=left;spacingLeft=6;overflow=hidden;whiteSpace=wrap;html=1;" vertex="1" parent="kdMP9LqTFJ9MGKXx3PHf-151">
          <mxGeometry x="64" width="202" height="30" as="geometry">
            <mxRectangle width="202" height="30" as="alternateBounds" />
          </mxGeometry>
        </mxCell>
        <mxCell id="kdMP9LqTFJ9MGKXx3PHf-154" value="" style="shape=tableRow;horizontal=0;startSize=0;swimlaneHead=0;swimlaneBody=0;fillColor=none;collapsible=0;dropTarget=0;points=[[0,0.5],[1,0.5]];portConstraint=eastwest;top=0;left=0;right=0;bottom=0;" vertex="1" parent="kdMP9LqTFJ9MGKXx3PHf-27">
          <mxGeometry y="660" width="266" height="30" as="geometry" />
        </mxCell>
        <mxCell id="kdMP9LqTFJ9MGKXx3PHf-155" value="" style="shape=partialRectangle;connectable=0;fillColor=none;top=0;left=0;bottom=0;right=0;editable=1;overflow=hidden;whiteSpace=wrap;html=1;" vertex="1" parent="kdMP9LqTFJ9MGKXx3PHf-154">
          <mxGeometry width="64" height="30" as="geometry">
            <mxRectangle width="64" height="30" as="alternateBounds" />
          </mxGeometry>
        </mxCell>
        <mxCell id="kdMP9LqTFJ9MGKXx3PHf-156" value="&lt;font color=&quot;#ff0000&quot;&gt;ProductName&lt;/font&gt;" style="shape=partialRectangle;connectable=0;fillColor=none;top=0;left=0;bottom=0;right=0;align=left;spacingLeft=6;overflow=hidden;whiteSpace=wrap;html=1;" vertex="1" parent="kdMP9LqTFJ9MGKXx3PHf-154">
          <mxGeometry x="64" width="202" height="30" as="geometry">
            <mxRectangle width="202" height="30" as="alternateBounds" />
          </mxGeometry>
        </mxCell>
        <mxCell id="kdMP9LqTFJ9MGKXx3PHf-157" value="" style="shape=tableRow;horizontal=0;startSize=0;swimlaneHead=0;swimlaneBody=0;fillColor=none;collapsible=0;dropTarget=0;points=[[0,0.5],[1,0.5]];portConstraint=eastwest;top=0;left=0;right=0;bottom=0;" vertex="1" parent="kdMP9LqTFJ9MGKXx3PHf-27">
          <mxGeometry y="690" width="266" height="30" as="geometry" />
        </mxCell>
        <mxCell id="kdMP9LqTFJ9MGKXx3PHf-158" value="" style="shape=partialRectangle;connectable=0;fillColor=none;top=0;left=0;bottom=0;right=0;editable=1;overflow=hidden;whiteSpace=wrap;html=1;" vertex="1" parent="kdMP9LqTFJ9MGKXx3PHf-157">
          <mxGeometry width="64" height="30" as="geometry">
            <mxRectangle width="64" height="30" as="alternateBounds" />
          </mxGeometry>
        </mxCell>
        <mxCell id="kdMP9LqTFJ9MGKXx3PHf-159" value="ReservationNumber" style="shape=partialRectangle;connectable=0;fillColor=none;top=0;left=0;bottom=0;right=0;align=left;spacingLeft=6;overflow=hidden;whiteSpace=wrap;html=1;" vertex="1" parent="kdMP9LqTFJ9MGKXx3PHf-157">
          <mxGeometry x="64" width="202" height="30" as="geometry">
            <mxRectangle width="202" height="30" as="alternateBounds" />
          </mxGeometry>
        </mxCell>
        <mxCell id="kdMP9LqTFJ9MGKXx3PHf-160" value="" style="shape=tableRow;horizontal=0;startSize=0;swimlaneHead=0;swimlaneBody=0;fillColor=none;collapsible=0;dropTarget=0;points=[[0,0.5],[1,0.5]];portConstraint=eastwest;top=0;left=0;right=0;bottom=0;" vertex="1" parent="kdMP9LqTFJ9MGKXx3PHf-27">
          <mxGeometry y="720" width="266" height="30" as="geometry" />
        </mxCell>
        <mxCell id="kdMP9LqTFJ9MGKXx3PHf-161" value="" style="shape=partialRectangle;connectable=0;fillColor=none;top=0;left=0;bottom=0;right=0;editable=1;overflow=hidden;whiteSpace=wrap;html=1;" vertex="1" parent="kdMP9LqTFJ9MGKXx3PHf-160">
          <mxGeometry width="64" height="30" as="geometry">
            <mxRectangle width="64" height="30" as="alternateBounds" />
          </mxGeometry>
        </mxCell>
        <mxCell id="kdMP9LqTFJ9MGKXx3PHf-162" value="&lt;font color=&quot;#ff0000&quot;&gt;HasBeenConfirm&lt;/font&gt;" style="shape=partialRectangle;connectable=0;fillColor=none;top=0;left=0;bottom=0;right=0;align=left;spacingLeft=6;overflow=hidden;whiteSpace=wrap;html=1;" vertex="1" parent="kdMP9LqTFJ9MGKXx3PHf-160">
          <mxGeometry x="64" width="202" height="30" as="geometry">
            <mxRectangle width="202" height="30" as="alternateBounds" />
          </mxGeometry>
        </mxCell>
        <mxCell id="kdMP9LqTFJ9MGKXx3PHf-163" value="" style="shape=tableRow;horizontal=0;startSize=0;swimlaneHead=0;swimlaneBody=0;fillColor=none;collapsible=0;dropTarget=0;points=[[0,0.5],[1,0.5]];portConstraint=eastwest;top=0;left=0;right=0;bottom=0;" vertex="1" parent="kdMP9LqTFJ9MGKXx3PHf-27">
          <mxGeometry y="750" width="266" height="30" as="geometry" />
        </mxCell>
        <mxCell id="kdMP9LqTFJ9MGKXx3PHf-164" value="" style="shape=partialRectangle;connectable=0;fillColor=none;top=0;left=0;bottom=0;right=0;editable=1;overflow=hidden;whiteSpace=wrap;html=1;" vertex="1" parent="kdMP9LqTFJ9MGKXx3PHf-163">
          <mxGeometry width="64" height="30" as="geometry">
            <mxRectangle width="64" height="30" as="alternateBounds" />
          </mxGeometry>
        </mxCell>
        <mxCell id="kdMP9LqTFJ9MGKXx3PHf-165" value="" style="shape=partialRectangle;connectable=0;fillColor=none;top=0;left=0;bottom=0;right=0;align=left;spacingLeft=6;overflow=hidden;whiteSpace=wrap;html=1;" vertex="1" parent="kdMP9LqTFJ9MGKXx3PHf-163">
          <mxGeometry x="64" width="202" height="30" as="geometry">
            <mxRectangle width="202" height="30" as="alternateBounds" />
          </mxGeometry>
        </mxCell>
        <mxCell id="kdMP9LqTFJ9MGKXx3PHf-85" value="&lt;i style=&quot;background-color: rgb(255, 255, 51);&quot;&gt;Licensing&lt;/i&gt;" style="text;html=1;strokeColor=none;fillColor=none;align=center;verticalAlign=middle;whiteSpace=wrap;rounded=0;fontSize=12;fontFamily=Helvetica;fontColor=default;" vertex="1" parent="kdMP9LqTFJ9MGKXx3PHf-86">
          <mxGeometry x="166" y="400" width="60" height="30" as="geometry" />
        </mxCell>
        <mxCell id="kdMP9LqTFJ9MGKXx3PHf-147" value="&lt;i style=&quot;background-color: rgb(255, 255, 51);&quot;&gt;Filter&lt;/i&gt;" style="text;html=1;strokeColor=none;fillColor=none;align=center;verticalAlign=middle;whiteSpace=wrap;rounded=0;fontSize=12;fontFamily=Helvetica;fontColor=default;" vertex="1" parent="kdMP9LqTFJ9MGKXx3PHf-86">
          <mxGeometry x="175" y="507" width="60" height="30" as="geometry" />
        </mxCell>
        <mxCell id="kdMP9LqTFJ9MGKXx3PHf-166" value="&lt;i style=&quot;background-color: rgb(255, 255, 51);&quot;&gt;Filter&lt;/i&gt;" style="text;html=1;strokeColor=none;fillColor=none;align=center;verticalAlign=middle;whiteSpace=wrap;rounded=0;fontSize=12;fontFamily=Helvetica;fontColor=default;" vertex="1" parent="kdMP9LqTFJ9MGKXx3PHf-86">
          <mxGeometry x="181" y="717" width="60" height="30" as="geometry" />
        </mxCell>
      </root>
    </mxGraphModel>
  </diagram>
</mxfile>
